<?xml version="1.0" encoding="UTF-8" standalone="no"?>
<!-- Created with Inkscape (http://www.inkscape.org/) -->

<svg
   version="1.1"
   id="svg2"
   width="243.03999"
   height="430.14667"
   viewBox="0 0 243.03999 430.14667"
   sodipodi:docname="lulx_hx9o_170321.eps"
   xmlns:inkscape="http://www.inkscape.org/namespaces/inkscape"
   xmlns:sodipodi="http://sodipodi.sourceforge.net/DTD/sodipodi-0.dtd"
   xmlns="http://www.w3.org/2000/svg"
   xmlns:svg="http://www.w3.org/2000/svg">
  <defs
     id="defs6">
    <clipPath
       clipPathUnits="userSpaceOnUse"
       id="clipPath44">
      <path
         d="m 1076.04,2021.86 c 7.09,-0.61 14.04,-0.84 20.64,-0.78 31.46,0.22 84.88,13.89 96.78,47.29 10.35,29.01 -9.5,59.83 -27.62,80.96 -16.5,19.23 -34.88,36.67 -56.48,50.07 -44.15,27.42 -97.82,21.24 -115.786,-31.79 -10.703,-31.72 -12.539,-69.23 0.801,-100.49 14.175,-33.26 52.445,-33.22 81.665,-45.26 z"
         id="path42" />
    </clipPath>
    <linearGradient
       x1="0"
       y1="0"
       x2="1"
       y2="0"
       gradientUnits="userSpaceOnUse"
       gradientTransform="matrix(-96.8784,-392.383,392.383,-96.8784,1153.95,2363.43)"
       spreadMethod="pad"
       id="linearGradient52">
      <stop
         style="stop-opacity:1;stop-color:#ffffff"
         offset="0"
         id="stop46" />
      <stop
         style="stop-opacity:1;stop-color:#cacdc8"
         offset="0.992027"
         id="stop48" />
      <stop
         style="stop-opacity:1;stop-color:#cacdc8"
         offset="1"
         id="stop50" />
    </linearGradient>
  </defs>
  <sodipodi:namedview
     id="namedview4"
     pagecolor="#ffffff"
     bordercolor="#000000"
     borderopacity="0.25"
     inkscape:showpageshadow="2"
     inkscape:pageopacity="0.0"
     inkscape:pagecheckerboard="0"
     inkscape:deskcolor="#d1d1d1" />
  <g
     id="g8"
     inkscape:groupmode="layer"
     inkscape:label="ink_ext_XXXXXX"
     transform="matrix(1.3333333,0,0,-1.3333333,0,430.14667)">
    <g
       id="g10"
       transform="scale(0.1)">
      <path
         d="m 539.863,351.5 c -8.769,-38.57 -19.297,-66.148 -28.73,-99.121 -8.281,-29.027 -19.102,-62.168 -9.512,-92.141 17.539,-54.828 89.336,-73.0271 138.906,-55.629 1.016,-0.367 2.071,-0.679 3.125,-0.98 1.231,-0.309 2.11,-0.289 2.832,-0.07 33.477,-14.7777 73.614,-19.3285 105.371,-3.977 21.465,-8.0625 44.727,-11.2617 66.27,-5.7031 61.133,15.7931 79.336,86.9801 50.586,137.5621 -10.098,17.77 -22.402,36.5 -37.871,49.848 -63.086,54.43 -67.012,110.941 -64.844,113.16 8.672,8.981 20.977,28.903 29.805,37.68 13.965,5.082 21.992,5.621 35.664,11.652 18.105,8 38.769,11.699 58.398,13.957 38.575,4.442 77.852,5.102 116.597,6.121 31.27,0.782 67.19,4.082 97.49,-5.25 4.72,-1.468 9.41,-2.98 14.08,-4.539 0.29,-1.05 1.85,-2.101 2.93,-2.058 -12.07,-33.453 -40.02,-60.121 -44.89,-96.34 -2.2,-16.383 2.04,-30.902 10.71,-42.223 9.53,-12.418 33.94,-13.32 47.75,-15.847 36.37,-6.68 73.07,-9.653 109.61,-15.063 29.57,-4.379 56.47,-11.73 82.05,-27.527 19.47,-12.032 38.09,-25.891 58.71,-35.891 25.92,-12.621 76.84,-22.082 101.39,1.129 2.36,-0.328 4.51,-1.008 6.19,-2.25 19.82,-4.602 47.99,12.379 58.57,27 6.18,8.57 12.02,18.27 15.92,28.512 29.67,-2.16 39.75,39.707 39.36,62.488 -0.51,27.121 -10.31,58.629 -36.1,72.129 -33.08,17.281 -75.68,15.801 -112.01,15.601 -42.58,-0.261 -89.94,-2.351 -130.64,12.649 9.88,-0.07 19.76,-0.02 29.57,1.09 38.46,4.351 72.38,29.972 102.09,53.25 32.85,25.742 62.99,55.402 87.11,89.543 22.67,32.047 45.51,68 55.13,106.437 21.02,84.121 -22.75,169.801 -59.35,243.383 -16.8,33.797 -35.61,71.758 -66.04,95.428 -24.06,18.66 -49.51,18.18 -76.11,13.41 21.27,34.17 40.23,69.83 48.09,108.41 12.81,63.05 8.67,131.08 -3.34,193.95 -6.39,33.56 -15.06,66.78 -26.72,98.91 -9.92,27.44 -25.35,52.72 -36.17,79.65 -9.73,35.06 -32.64,66.41 -54.96,96.37 10.41,-5.74 19.14,-16.08 29.72,-21.27 2.46,-1.19 4.9,0.55 4.36,3.23 -2.99,14.64 -12.58,25.28 -20.96,37.2 -11.48,16.29 -21.11,33.69 -31.68,50.55 -14.71,23.53 -27.42,48.98 -35.47,75.69 3.3,28.53 -5.76,56.92 -16.97,83.05 -9.38,21.94 -22.75,42.45 -40.16,58.9 -39.72,37.55 -95,55.03 -147.91,64.11 -42.34,7.28 -85.857,9.61 -128.669,5.51 -33.145,-3.18 -68.418,-9.06 -98.575,-23.99 -28.554,-14.14 -52.402,-36.71 -54.511,-70.24 -2.383,-38.42 9.746,-75.48 2.773,-113.97 -15.644,-86.65 -83.672,-152.03 -105.879,-236.78 -14.765,-56.5 -20.469,-115.56 -22.91,-174.53 -2.656,-10.5 -5.605,-20.88 -8.691,-31.13 -6.211,-30.41 -19.375,-59.88 -31.153,-87.98 -18.183,-43.47 -40.195,-85.59 -63.125,-126.71 -22.793,-40.97 -50.41,-78.99 -76.836,-117.631 -26.25,-38.379 -49.765,-78.098 -69.609,-120.18 -6.66,-14.027 -12.852,-28.309 -18.613,-42.707 -12.93,-44.273 -25.957,-88.523 -32.461,-134.293 -2.305,-16.168 -3.653,-32.367 -4.356,-48.668 0.215,-2.871 0.508,-5.723 0.86,-8.621 C 345.156,514.898 427.422,395.031 539.863,351.5"
         style="fill:#040606;fill-opacity:1;fill-rule:nonzero;stroke:none"
         id="path12" />
      <path
         d="m 1366.8,1005.17 c -14.57,-19.318 -28.75,-38.94 -40,-60.068 -5.37,-14.293 -7.37,-28.391 -5.96,-44.153 2.6,-29.097 1.15,-68.89 -30.49,-82.558 -3.38,-1.45 -6.74,-1.801 -9.94,-1.301 l -1.84,-1.258 -1.03,-0.211 -0.14,0.211 c -8.51,10.957 -18.79,23 -22.15,36.809 -3.06,12.468 -3.22,25.039 -1.81,37.781 2.36,20.769 7.81,41.797 2.87,62.629 -0.31,1.398 -3.93,4.429 -4.69,1.859 -7.03,-24.14 -13.49,-54.39 -11.37,-79.551 0.94,-10.949 3.66,-21.379 7.93,-31.179 1.12,-4.141 2.41,-8.219 3.85,-12.141 l 0.61,-1.769 c -4.57,-4.34 -12.25,-8.829 -18.32,-7.711 -5.73,1.05 -9.93,4.511 -15.22,6.461 15.92,30.269 11.7,73.07 5.59,103.679 -4.96,24.852 -9.2,50.231 -14.32,75.371 l 0.45,1.62 c 3.54,55.94 12.79,108.47 31.48,161.43 9.07,25.58 20.55,50.58 28.83,76.32 5.14,16.04 7.64,33.13 8.87,50.16 10.72,11.57 19.08,26.18 25.92,38.83 7.83,14.46 15.6,29.01 17.52,45.58 1.03,8.84 0.78,17.44 -0.12,26.05 2.87,-9.28 5.16,-18.94 10.22,-26.97 1.28,-2.1 5.37,-4.67 7.91,-3.18 17.61,10.33 28,36.21 31.25,55.46 3.1,18.75 -0.51,35.36 -7.52,51.24 3.45,-6.41 6.75,-12.91 10.82,-18.49 2.13,-2.88 8.24,-5.43 9.1,-0.23 1.6,9.84 1.89,19.35 1.21,28.64 6.72,-16.38 14.41,-32.42 19.94,-49.04 10.41,-31.62 19.43,-64.1 25.61,-96.8 11.93,-63.46 18.63,-135.54 3.02,-199.02 -0.92,-3.72 -1.95,-7.42 -3.04,-11.09 -0.96,-6.57 -2.13,-13.17 -3.62,-19.7 -10.02,-43.41 -35.06,-78.79 -61.42,-113.71"
         style="fill:#ffffff;fill-opacity:1;fill-rule:nonzero;stroke:none"
         id="path14" />
      <path
         d="m 549.199,349.57 c -0.937,-5.511 62.324,-14.039 68.008,-14.39 42.598,-2.66 88.828,7.402 123.106,33.859 5.449,6.512 10.996,12.992 16.699,19.27 2.558,-14.321 3.027,-30.649 8.808,-43.918 6.231,-8.512 11.68,-17.672 18.477,-25.7 11.621,-13.781 22.383,-28.332 34.707,-41.543 22.422,-23.886 46.797,-46.566 54.824,-79.617 6.328,-26.179 -1.621,-55.39 -23.086,-72.34 -18.262,-14.39 -45.234,-25.7613 -68.359,-17.293 l -0.762,0.704 c -4.219,0.429 -8.437,1.097 -12.598,2.007 1.622,1.36 3.262,2.789 4.786,4.289 25.214,24.493 25.254,58.532 14.609,90.223 -4.863,14.449 -13.184,27.68 -24.688,37.789 -9.765,8.578 -20.898,14.442 -31.601,21.219 -6.133,7.613 -10.352,16.312 -10.313,27.301 0.02,1.14 -1.543,2.851 -2.929,3.371 -0.547,-4.672 -1.66,-9.172 -2.793,-13.77 -0.586,-2.32 -0.664,-4.472 -0.43,-6.511 0.293,-1.379 0.625,-2.75 1.074,-4.079 1.836,-4.839 5.567,-9.031 9.473,-12.992 11.074,-11.277 24.082,-20.687 33.945,-33.16 17.071,-21.57 23.086,-50.367 14.18,-76.75 -9.453,-27.98 -30.352,-39.391 -58.301,-40.578 -23.105,-1 -69.863,2.258 -83.262,32.43 -10.527,23.66 -7.031,46.828 -3.886,67.73 0.84,5.668 1.543,11.34 1.972,17.008 0.547,7.641 4.375,17.16 -0.41,23.871 -7.461,-20.25 -13.515,-41.02 -15.449,-62.629 -2.09,-23.691 2.324,-47.051 11.738,-68.801 l -1.035,-1.879 c -16.406,-5.601 -35.078,-4.781 -51.777,1.258 -8.106,1.422 -16.172,3.949 -24.18,8.422 -23.965,13.461 -37.617,33.32 -35.547,61.449 2.207,29.989 12.364,59.282 19.824,88.27 6.446,24.922 10.938,50.109 15.176,75.48"
         style="fill:#ffffff;fill-opacity:1;fill-rule:nonzero;stroke:none"
         id="path16" />
      <path
         d="m 398.926,493.219 c -3.77,7.293 -7.129,14.793 -10,22.5 -8.75,16.551 -15.293,34.203 -18.301,53.203 -4.531,28.367 -4.297,57.808 -2.227,86.387 0.137,1.812 0.293,3.613 0.45,5.421 0.39,15.411 1.777,30.75 3.418,46.141 4.648,42.988 17.129,83.809 33.945,123.57 15.586,37.039 32.07,73.911 51.484,109.161 38.672,70.278 86.719,134.718 127.637,203.598 31.289,52.66 60.273,108.67 73.438,168.68 -0.43,-20.38 -0.625,-40.71 -0.86,-60.85 l 0.957,-2.26 c 2.071,7.97 3.477,16.13 4.59,24.16 2.637,18.98 3.516,38.3 4.336,57.42 1.953,45.99 1.172,92.03 9.375,137.52 7.559,42.15 21.426,83.02 39.121,121.95 17.149,37.66 42.5,70.92 59.356,108.72 18.652,41.85 20.429,87.25 25.41,132.13 -1.602,12.9 -2.969,25.89 -2.051,38.77 2.891,40.26 34.355,62.79 70.176,74.83 78.808,26.53 172.48,22.75 251.19,-1.89 38.07,-11.93 75.59,-28.08 100.94,-60.31 18.46,-23.44 33.79,-53.62 40.64,-84.35 -0.95,0.15 -1.74,-0.18 -1.7,-1.47 2.33,-54.37 32.97,-102.41 61.41,-146.89 8.87,-13.87 22.38,-27.59 28.63,-43.2 -10.95,6.42 -20.19,15.36 -32.26,20.38 -2.66,1.08 -4.94,-1.17 -3.48,-3.81 13.34,-24.07 30.35,-46.03 42.6,-70.74 11.09,-22.41 17.38,-45.94 17.71,-70.66 -8.16,11.51 -15.43,23.12 -26.42,33.04 -1.19,1.09 -2.8,1.52 -4.01,1.29 10.75,-33.05 27.33,-69.55 8.23,-99.03 -3.48,-9.5 -8.19,-18.71 -14.85,-25.17 -6.89,13.56 -8.18,29.11 -17.73,41.56 -0.26,-20.91 -4.55,-41.99 -10.9,-61.72 -6.05,-19.01 -14,-37.58 -26.33,-53.42 -11.48,-14.75 -25.62,-27.1 -39.04,-40.06 l 1.5,-0.17 c 9.48,1.28 17.76,5.36 25.06,11.06 -0.27,-1.75 -0.55,-3.52 -0.88,-5.24 -2.87,-15.68 -8.04,-29.89 -14.55,-44.39 -10.99,-24.78 -21.46,-49.76 -30.21,-75.42 -12.43,-36.56 -22.48,-74.82 -24.12,-113.46 -3.54,13.29 -7.64,26.4 -12.48,39.2 -10.18,26.79 -24.89,50.8 -39.58,75.28 -14.06,23.49 -28.12,47.19 -44.53,69.13 -5.06,6.72 -10.27,13.31 -15.58,19.79 -5.47,6.18 -10.78,12.45 -16,18.86 -3.49,4 -7.07,7.95 -10.64,11.85 -1.02,2.01 -2.01,3.99 -3.01,6 -12.01,16.41 -22.87,33.61 -32.15,51.73 -17.69,34.53 -28.671,73.97 -21.84,112.12 -6.07,-12.35 -9.468,-26.57 -15.972,-38.71 -4.062,16.01 -3.437,35.89 -1.894,51.1 2.148,21.34 7.05,42.24 10.546,63.39 l -1.347,2 c -8.692,-19 -14.473,-39.35 -18.047,-60.12 -0.527,-4.21 -0.84,-8.4 -0.781,-12.66 0.117,-18.11 -2.149,-37.25 7.617,-53.42 1.152,-1.92 5.605,-5.59 7.168,-1.99 2.558,5.77 4.687,11.83 6.894,17.89 -0.976,-6.1 -1.582,-12.22 -1.211,-18.27 0.782,-13.75 5.357,-27.5 10.817,-40.13 8.48,-19.49 19.11,-37.68 30.39,-55.47 -13.3,13.23 -27.05,26.02 -41.109,38.48 4.299,-7.15 8.579,-14.3 12.849,-21.45 28.73,-30.86 57.37,-61.87 81.78,-96.33 16.09,-22.67 31.02,-46.01 45.37,-69.78 12.97,-21.37 26.54,-42.39 35.65,-65.78 18.65,-47.96 23.24,-99.629 35.21,-149.41 5.43,-22.539 10.08,-46.051 8.2,-69.352 -1.15,-13.968 -4.74,-25.578 -9.82,-36.937 0.39,7.891 -0.04,15.738 -0.65,22.879 -2.07,24.851 -15.35,45.199 -23.26,68.191 -0.39,1.051 -2.48,2.809 -3.86,2.899 0.21,-3.758 0.33,-8.098 0.45,-8.961 0.85,-6.789 2.07,-13.578 3.61,-20.227 4.24,-18.953 11.93,-36.332 14.14,-55.82 1.76,-15.473 -2.42,-30.813 -17.36,-37.902 -7.21,-3.372 -15.45,-3.559 -21.96,-0.231 -5.8,0.84 -11.91,3.109 -17.85,6.152 l 0.27,1.129 c 3.46,20.68 -1.68,40.879 -3.35,61.41 -0.24,2.469 -2.15,5.059 -4.58,7.04 3.05,-13.2 2.86,-27.571 1.82,-40.45 -0.64,-8.281 -2.11,-30.84 -14.3,-31.621 -4.16,-0.269 -7.96,1.563 -11.44,4.313 -8.01,4.398 -15.27,12.527 -21.13,18.468 -8.56,8.711 -17.17,17.532 -25.08,26.829 -12.64,14.882 -19.26,29.703 -24.1,48.543 -5.57,21.617 -11.12,43.937 -23.17,63.019 -18.494,29.319 -45.798,51.619 -71.872,73.869 -25.391,21.64 -53.672,40.33 -77.833,63.32 -23.007,21.88 -41.542,48.28 -56.269,76.3 -35.039,66.74 -43.457,143.72 -38.301,218.02 1.445,20.42 5.313,40.4 7.461,60.71 0.899,8.36 2.422,16.31 4.473,24.06 3.886,19.24 8.574,38.31 13.886,57.18 -0.917,0.34 -1.835,0.39 -2.675,0 -12.715,-6.12 -16.7,-22.1 -26.367,-30.67 -0.059,18.76 4.511,37.06 11.718,54.57 7.246,17.6 18.028,32.95 26.407,49.81 -1.016,-0.78 -2.012,-1.56 -3.067,-2.32 -4.531,-3.41 -8.75,-6.72 -12.715,-10.18 -8.183,-11.21 -16.093,-22.49 -21.289,-36.1 -7.754,-20.42 -13.633,-42.12 -10.273,-64.05 0.508,-3.31 4.902,-6.5 8.164,-5.25 3.164,1.24 5.683,3.07 7.832,5.31 -5.41,-12.45 -9.629,-25.33 -11.133,-39.9 -3.262,-31.23 -6.133,-63.08 -4.98,-94.5 2.539,-69.71 14.433,-129.28 32.05,-174.85 25.43,-65.74 61.797,-92.01 101.68,-125.34 40.664,-33.94 86.406,-61.6 115.083,-106.911 7.3,-13.957 12.79,-28.418 16.99,-44.429 4.43,-17.008 7.34,-34.629 16.91,-49.711 14.49,-22.758 35.86,-49.528 57.66,-65.957 14,-10.582 31.52,-14.18 38.92,0.429 17.91,-13.461 44.18,-23.691 58.89,-4.101 1.27,1.711 2.38,3.519 3.36,5.39 l 2.03,0.571 c 5.02,3.949 9.14,8.558 12.66,13.578 5.35,-7.16 15.13,-13.207 24.18,-11.867 8.86,1.32 12.91,6.367 16.44,12.98 3.46,-8.891 8.5,-18.422 17.4,-20.461 1.14,-0.281 2.25,-0.301 3.34,-0.211 2.99,-0.801 6.12,-0.84 9.42,0.281 13.08,4.411 30.94,15.75 37.44,28.411 10.35,20.019 4.65,37.39 5.59,58.707 0.84,19.562 6.38,37.961 12.93,56.203 5.23,9.41 10.93,18.699 16.79,28.187 11.47,18.43 24.06,37.061 36.19,56.101 15.24,1.61 30.51,4.7 45.39,1.42 18.36,-4.03 34.36,-14.4 46.16,-29.07 25.84,-32.13 43.16,-70.771 59.84,-108.201 17.64,-39.617 36.06,-80.008 43.09,-123.179 1.3,-8.168 2.03,-16.27 2.24,-24.321 6.96,-61.879 -18.9,-125.23 -59.35,-172.789 -26.9,-31.609 -59.46,-57.949 -91.7,-83.871 -23.77,-19.109 -49.08,-30.418 -78.97,-37.738 -31.68,-7.762 -65.99,-10.301 -98.06,-15.653 -19.03,-3.179 -37.64,-8.847 -54.03,-19.226 29.55,3.937 57.15,15.777 87.07,18.32 8.46,0.719 16.94,0.719 25.41,0.68 0.18,-1.051 0.94,-2.301 2.02,-2.774 30.58,-13.699 59.64,-19.679 93.22,-20.648 35.74,-1 71.99,1.551 107.52,-3.289 16.6,-2.25 37.6,-4.039 50.29,-16.211 11.04,-10.59 16.78,-25.18 17.44,-40.418 0.53,-12.934 -0.17,-26.781 -5.47,-38.773 -3.98,-9.118 -8.59,-15.2 -14.78,-20.438 l 0.08,1.938 c 2.85,8.75 4.33,17.8 3.34,27.14 -1.9,17.781 -14.61,35.422 -30.51,43.582 -17.21,8.84 -35.55,11.391 -54.65,13.36 -19.41,1.988 -38.73,4.211 -58.03,7 -3.1,1.109 -6.19,2.461 -9.1,4.211 -2.34,1.418 -3.22,-0.75 -1.99,-2.461 l -1.9,0.281 c 17.64,-7.352 36.45,-11.602 55.18,-15.551 22.75,-4.781 47.11,-8.332 68.07,-18.789 10.64,-5.332 16.15,-13.523 18.36,-23.184 l 0.52,-1.429 -0.27,0.351 c 1.25,-6.23 1.23,-13.031 0.39,-20.05 -2.01,-16.09 -8.32,-33.782 -19.86,-45.84 -2.31,-3.41 -4.75,-6.668 -7.35,-9.758 -8.4,-10 -18.53,-15.563 -29.63,-19.84 2.54,5.18 4.48,11.129 5.51,18.137 4.4,30.07 -8.44,62.031 -33.08,80.07 -21.94,16.102 -49.65,22.52 -76.29,25.352 -14.42,1.55 -28.75,2.371 -43.21,2.941 -4.53,0.168 -9.02,0 -13.45,-0.141 16.68,-0.921 33.34,-2.461 49.88,-5.16 26.17,-4.269 53.94,-11.539 74.96,-28.59 7.21,-5.871 12.58,-13.132 16.43,-21.203 7.95,-12.019 11.83,-26.476 9.37,-42.039 -0.8,-4.969 -1.99,-9.359 -3.53,-13.34 -2.5,-10.238 -7.86,-19.5 -16.72,-25.711 -13.93,-9.707 -33.56,-10.546 -49.65,-7.738 -29.92,5.262 -55.9,25.231 -79.34,43.391 -2.2,1.687 -4.43,3.328 -6.64,4.929 -1.21,0.668 -2.36,1.321 -3.59,1.989 -19.92,10.832 -40.27,19.41 -62.48,24.203 -2.48,0.578 -4.98,1.027 -7.48,1.519 l 1.38,-0.371 c -1.15,0.27 -2.3,0.489 -3.43,0.719 -39.05,7.082 -79.38,6.82 -118.71,11.461 -18.5,2.18 -40.02,5.391 -52.02,21.309 -16.3,21.601 0.77,53.421 12.82,72.933 2.36,4.367 4.88,8.598 7.34,12.528 7.52,11.929 17.89,23.492 17.58,37.859 l 2.3,-0.797 c 4.22,-1.543 8.54,-2.902 12.76,-4.5 1.77,-0.684 3.67,-1.301 5.41,-2.102 l 0.6,-0.41 c 0.88,-1.269 2.48,-2.351 3.79,-2.32 -2.81,-0.051 -18.55,17.602 -22.44,20.039 -7.79,4.891 -16.03,8.512 -24.98,10.602 -24.1,5.648 -48.85,5.129 -73.44,4.898 -39.705,-0.379 -79.548,0.961 -119.06,-3.707 -17.969,-2.141 -35.801,-5.602 -53.457,-9.652 -16.016,-3.629 -35.645,-12.219 -51.895,-14.641 -1.582,-0.219 -2.05,2.051 -0.859,2.813 7.52,4.75 14.844,9.82 22.031,15.007 29.375,33.879 57.266,72.172 71.309,114.762 20.703,62.66 8.223,135.121 -25.078,193.508 l 0.429,-0.527 c 1.348,-1.602 6.7,-4.582 9.317,-3.563 -5.508,23.473 -12.734,45.742 -24.785,67.082 -20.762,36.75 -50.274,68.438 -81.524,96.469 -14.511,13.019 -30.429,24.832 -48.047,33.351 -10.703,5.149 -22.753,6.188 -33.164,11.68 14.493,-15.601 41.368,-24.539 58.731,-38.051 25.332,-19.73 46.933,-42.511 66.347,-67.929 9.668,-12.653 19.688,-25.09 28.223,-38.532 6.992,-11.007 11.406,-32.949 19.649,-41.55 -13.477,14.062 -26.778,28.23 -41.661,40.972 -1.269,1.078 -2.539,1.469 -3.593,1.379 10.234,-14.539 21.933,-28.031 30.722,-43.5 8.008,-12.469 14.785,-25.859 20.313,-39.711 3.535,-7.738 6.797,-15.609 9.765,-23.679 14.864,-41.02 14.571,-86.571 5.606,-128.872 C 885.391,560.621 864.609,527.32 840.156,498 817.285,470.582 790.234,447.18 767.793,419.41 759.023,408.52 750.313,397.57 740.586,387.531 717.93,364.18 691.621,355.5 660.117,351.582 c -7.832,-0.973 -15.703,-1.711 -23.554,-2.16 -18.75,-2.051 -36.797,-1.66 -55.782,1.828 -79.218,14.59 -145.488,71.398 -181.855,141.969"
         style="fill:#ffffff;fill-opacity:1;fill-rule:nonzero;stroke:none"
         id="path18" />
      <path
         d="m 1307.56,735.832 c -4.38,13.457 -10.72,25.297 -18.6,36.297 8.01,-20.391 16.65,-40.231 14.5,-62.16 -9.16,11.051 -16.31,23.312 -27.68,32.832 -1.48,1.238 -4.71,-1.41 -3.63,-3.031 13.22,-20.211 24.59,-63.438 14.08,-89.918 -8.67,13.007 -14.49,27.5 -23.77,40.179 l -1.46,0.719 c 0.5,-3.629 1.19,-7.289 1.17,-10.34 -0.06,-8.191 -0.22,-16.461 -0.9,-24.64 0.84,-5.551 1.56,-11.098 1.87,-16.711 1.72,-30.258 -23.88,-52.067 -43.65,-70.797 -17.83,-16.922 -35.92,-33.461 -51.09,-52.52 9.06,7.039 18.63,13.578 28.26,20.078 3.2,3.039 6.35,6.121 9.69,9.102 15.15,13.59 32.81,25.437 45.54,41.539 21.39,27.019 20.49,49.648 15.75,77.027 4.2,-8.996 8.4,-17.976 14.63,-25.949 1.83,-2.359 5.91,0.582 6.97,2.242 10.74,16.918 7.64,39.25 5.49,58.168 -0.9,7.922 -3.01,15.313 -5.88,22.43 4.53,-7.391 8.36,-15.289 13.01,-22.617 1.99,-3.141 6.3,-0.262 7.34,2.328 0.39,0.949 0.68,1.902 1,2.859 0.97,11.262 0.74,22.492 -2.64,32.883"
         style="fill:#040606;fill-opacity:1;fill-rule:nonzero;stroke:none"
         id="path20" />
      <path
         d="m 793.223,2254.64 0.644,0.92 c -6.66,39.36 -12.793,78.23 -25.254,116.01 -13.261,40.36 -32.519,78.18 -52.168,115.51 -39.941,75.68 -85.937,148.59 -116.699,228.93 -26.68,69.66 -40.058,144.75 -30.312,222.4 4.882,39.1 14.453,78.37 29.804,116.22 10.176,25.05 26.192,64.13 54.512,77.08 23.496,10.8 45.137,-0.54 61.211,-13.82 31.641,-26.12 56.777,-57.8 80.644,-90.34 47.442,-64.55 103.184,-127.87 130.313,-204.28 25.234,-71.09 6.602,-146.98 -16.23,-221.64 -12.325,-40.25 -25.704,-80.81 -31.29,-121.76 -5.761,-42.09 -1.816,-84.06 4.375,-124.53 0.528,-3.39 1.094,-6.74 1.622,-10.07 l 0.507,-0.9 c 2.891,-10.35 10.254,-21.83 8.008,-33.47 -2.949,-15.22 -20.508,-22.61 -33.262,-30.01 -11.933,-6.9 -44.96,-28.76 -59.765,-20.13 0.156,-4.6 0.273,-9.18 0.234,-13.81 0,-2.22 -4.062,-1.86 -4.687,-0.39 -2.012,4.63 -1.524,2.92 -2.207,8.08"
         style="fill:#040606;fill-opacity:1;fill-rule:nonzero;stroke:none"
         id="path22" />
      <path
         d="m 805.273,2270.13 c 4.707,-0.79 10,1.91 14.493,3.64 9.609,3.78 18.613,9.79 27.519,15.03 10.977,6.51 27.695,12.18 33.086,24.38 2.344,5.34 1.641,11 0.078,16.5 -1.015,0.43 -1.836,1.13 -2.011,2.03 -0.625,3.08 -1.172,6.13 -1.739,9.18 -0.351,1.2 -0.722,2.37 -1.035,3.52 l 0.137,1.36 c -6.192,34.53 -10.02,69.64 -9.102,105.49 0.977,39.63 10.723,79.15 21.66,118.38 21.719,77.84 49.766,159.03 30.098,235.41 -21.016,81.61 -82.91,147.76 -130.879,214.38 -23.437,32.52 -48.008,64.45 -77.851,91.89 -11.582,10.66 -25.704,21.82 -44.278,18.53 -18.965,-3.37 -31.113,-24.16 -39.863,-38.47 -39.512,-65.07 -53.008,-145.55 -51.172,-215.34 1.895,-73.02 25.254,-142.73 56.055,-206.25 34.414,-71.02 75.703,-138.34 111.035,-208.89 29.355,-58.62 53.652,-123.45 57.91,-191.35 1.934,0.68 3.731,0.93 5.859,0.58"
         style="fill:#ffffff;fill-opacity:1;fill-rule:nonzero;stroke:none"
         id="path24" />
      <path
         d="m 657.441,1897.35 c 3.223,16.95 8.145,32.05 15.313,47.69 2.012,4.29 0.625,10.23 -0.313,14.64 -1.562,7.06 -3.808,13.95 -6.152,20.78 -5.176,14.93 -8.535,30 -12.383,45.29 -4.531,17.74 -10.078,35.25 -14.258,53.08 -2.988,12.82 -5.683,25.74 -8.242,38.65 l -0.039,0.54 c -4.082,22.38 -8.027,44.77 -7.988,67.85 0.078,32.92 20.996,57.39 42.07,80.23 -31.543,14.63 -64.355,23.42 -97.929,33.15 -68.477,19.89 -134.688,53.77 -190.254,98.53 -54.161,43.63 -96.621,100.66 -124.004,164.51 -31.699,73.81 -39.317,154.35 -54.61,232.48 -6.738,34.5 -37.441,99.78 11.993,116.17 21.855,7.21 47.695,-0.31 68.457,-7.37 22.968,-7.83 44.785,-18.61 66.484,-29.43 139.844,-69.61 252.598,-182.27 336.66,-312.72 36.797,-57.17 68.887,-117.07 100.664,-177.13 14.453,13.67 35.235,22.42 52.676,30.41 23.926,11.04 49.375,20.22 74.707,27.48 7.187,2.09 14.258,3.44 21.25,4.33 l 0.391,-0.09 c 108.746,-4.99 211.776,-40.77 303.926,-97.99 17.89,-12.44 35.1,-26 51.41,-40.65 53.9,-48.46 98.69,-108.92 137.09,-170.12 2.14,-3.41 4.19,-6.85 6.28,-10.29 6.96,-14.77 14.03,-29.54 21.08,-44.29 13.03,-27.26 27.69,-54.78 36.35,-83.84 1.79,-5.97 3.3,-12.01 4.66,-18.11 1.16,-12.74 1,-25.64 -0.66,-38.52 -1.17,-9.43 -3.07,-18.72 -5.47,-27.82 -17.05,-55.57 -70.62,-97.72 -123.9,-121.61 -18.74,-8.4 -40.55,-16.81 -61.33,-17.26 -19.61,-0.45 -37.91,5.2 -55.82,12.66 -20.14,8.4 -39.14,19.14 -58.89,28.37 -7.68,1.6 -15.43,2.77 -23.26,3.24 -34.38,2.16 -70.51,-13.78 -102.13,-25.49 -30.35,-11.22 -60.55,-22.27 -92.618,-27.55 -37.695,-6.2 -75.507,-4.46 -112.871,1.2 -17.871,-7.11 -39.238,-10.09 -57.304,-12.36 -25.157,-3.15 -50.84,-1.37 -73.594,10.42 -18.711,9.72 -32.207,26.26 -39.766,45.28 -4.765,6.8 -8.613,14.09 -11.094,21.96 -0.507,1.69 -0.957,3.33 -1.367,5.01 -1.836,-2.32 -3.906,-4.44 -6.484,-6.2 l -2.109,-0.8 c -0.958,1.15 -1.797,2.36 -2.637,3.59 -5.723,20.3 -7.93,41.73 -3.985,62.1"
         style="fill:#040606;fill-opacity:1;fill-rule:nonzero;stroke:none"
         id="path26" />
      <path
         d="m 695.352,1808.01 c 8.515,-11.2 20.41,-21.34 33.828,-28.33 2.578,-1.66 5.332,-3.2 8.222,-4.68 l 1.856,-0.92 c 29.043,-13.44 58.496,-6.33 87.949,-0.72 -5.156,1.02 -10.234,2.17 -15.352,3.31 3.536,0.91 7.09,1.64 10.665,2.15 4.453,0.23 8.886,0.47 13.3,0.74 20.215,-2.32 40.528,-2.48 60.723,-4.64 20.273,-2.2 40.742,-2.76 60.996,0.35 30.977,4.75 60.861,14.21 90.511,24.16 14.9,5.01 29.49,10.24 44.06,16.2 4.47,1.88 9.04,3.62 13.61,5.21 20.9,3.77 42.07,5.1 63.23,3.79 -15.28,6.17 -30.98,11.3 -46.86,15.8 35.14,-1.48 66.31,-19.59 98.07,-34.2 16.27,-7.52 35.6,-16.31 54.66,-18.52 1.29,-0.32 2.62,-0.67 3.95,-0.96 23.34,-5.34 46.37,2.89 67.95,11.27 36.56,14.24 73.12,37.93 99.84,68.72 14.32,14.53 25.71,31.8 32.31,51.16 2.15,6.27 3.75,12.75 4.94,19.3 l 0.39,0.56 c 0.47,2.01 0.9,4.05 1.15,6.22 l -0.45,0.46 c 1.08,8.64 1.23,17.44 0.35,26.06 -0.15,6.68 -0.74,13.34 -2.01,20.01 -2.71,14.13 -8.65,27.66 -14.08,40.93 -14.34,35.27 -31.52,68.75 -52.32,100.68 -21.66,33.26 -46.49,64.77 -71.2,95.84 -19.82,24.93 -40.85,48.51 -64.25,70.19 -77.19,71.57 -176.29,116.64 -279.89,133.04 -1.598,0.24 -3.238,0.49 -4.879,0.71 -26.328,3.58 -50.078,5.99 -76.113,-1.1 -22.676,-6.19 -44.824,-15.02 -66.914,-22.97 -23.36,-8.43 -44.727,-20.05 -67.031,-30.45 22.91,-43.36 45.8,-86.75 70.292,-129.24 -24.687,32.16 -46.835,66.11 -67.636,100.93 -59.649,108.24 -113.321,220.2 -192.578,315.79 -50.938,61.43 -109.512,108.03 -175.996,152.23 -49.278,32.75 -107.11,72.77 -165.411,85.76 -23.964,5.34 -51.836,3.01 -56.543,-25.67 -3.828,-23.38 5.704,-49.41 10.196,-72.17 7.402,-37.46 10.156,-75.93 16.797,-113.55 7.226,-40.86 16.269,-81.62 32.519,-119.93 59.824,-141.05 199.16,-222.02 338.809,-266.62 33.34,-10.64 65.429,-22.77 95.703,-40.54 3.73,-2.19 7.422,-4.54 11.074,-6.94 15.508,-12.84 29.453,-27.78 41.543,-44.03 -21.68,17.65 -43.789,34.44 -68.984,47.44 -2.891,1.46 -5.801,2.82 -8.711,4.2 -0.86,-2.15 -1.778,-4.26 -2.676,-6.4 -4.981,-4.06 -8.848,-9.57 -12.598,-14.75 -14.765,-20.32 -21.797,-44.95 -19.863,-69.86 1.191,-15 3.965,-29.71 6.465,-44.5 2.969,-17.36 5.332,-34.84 7.93,-52.26 0.468,-3.14 0.937,-6.25 1.425,-9.36 3.282,-11.31 6.914,-22.46 10.547,-33.45 4.668,-14.24 8.985,-28.59 13.145,-42.98 2.402,-8.4 6.328,-18.02 8.574,-27.51 7.422,12.49 16.68,24.7 31.23,27.73 19.317,4.04 37.715,-1.15 56.25,-6.1 -7.011,0.56 -14.003,1.08 -21.054,1.51 -16.153,0.98 -30.235,0.98 -44.004,-9.16 -16.953,-12.46 -26.25,-37.19 -30.84,-56.98 -1.973,-8.49 -4.59,-16.9 -5.84,-25.54 -0.469,-3.5 -1.015,-7.32 -0.605,-10.94 -1.016,-7.84 -1.27,-15.75 -0.606,-23.74 2.5,6.38 5.645,12.53 9.18,18.48 2.519,7.93 6.289,15.53 10.937,22.75 -3.515,-8.14 -6.25,-16.48 -7.089,-25.35 -2.168,-23.63 2.636,-49.48 17.207,-68.62"
         style="fill:#ffffff;fill-opacity:1;fill-rule:nonzero;stroke:none"
         id="path28" />
      <path
         d="m 1250.02,1858.18 c 2.05,-1.28 3.34,-3.29 1.97,-5.47 -0.84,-1.38 -1.78,-2.61 -2.73,-3.78 -3.3,-8.15 13.28,-12.26 20.64,-14.78 10.39,-3.56 21.02,-6.66 31.76,-9.03 16.09,-3.51 32.89,-3.96 48.91,-0.61 18.02,1.23 34.92,7.68 48.22,23.64 12.97,15.56 23.59,34.35 32.05,52.66 4.8,10.29 9.26,21.18 11.97,32.37 -4.41,-44.9 -28.81,-93.3 -70.99,-110.59 -21.23,-8.68 -45.37,-7.93 -67.5,-4.14 -20.8,3.53 -46.23,10.25 -63.52,23.76 -2.48,-1.19 -5.19,-1.97 -8.24,-2.31 -1.19,-0.15 -4.04,0.63 -5.92,1.9 10.29,4.32 21.06,10.05 23.38,16.38"
         style="fill:#040606;fill-opacity:1;fill-rule:nonzero;stroke:none"
         id="path30" />
      <path
         d="m 1444.9,1944.59 c 1.39,-1.73 2.76,-3.5 4.14,-5.21 6.66,-10.41 11.1,-22.41 19.09,-32.04 3,-3.59 6.62,-7.3 10.48,-2.4 3.56,4.51 4.59,12.1 5.9,17.54 3.34,13.82 4.3,27.36 3.38,41.52 -0.12,2.05 3.81,1.47 4.04,-0.25 1.49,-11.79 5.92,-74.16 -19.64,-66.46 -8.62,2.63 -14.3,12.45 -18.81,19.58 -3.66,5.75 -7.23,11.88 -10.2,18.2 0.68,3.15 1.23,6.33 1.62,9.52"
         style="fill:#040606;fill-opacity:1;fill-rule:nonzero;stroke:none"
         id="path32" />
      <path
         d="m 310.176,2580.26 c -10.156,36.41 -18.379,73.49 -31.563,108.74 1.055,-2.2 2.09,-4.44 3.106,-6.6 6.933,-14.58 13.906,-29.08 20.195,-44.01 15.156,-35.82 31.348,-70.21 49.805,-104.55 30.859,-57.4 74.941,-109.23 134.668,-137.16 -4.805,11.54 -9.121,23.12 -11.719,35.46 -0.43,2.18 1.387,2.66 3.398,2.39 14.473,-22.49 34.122,-42.01 57.286,-54.73 1.211,-0.67 2.421,0.7 1.836,1.84 -6.875,13.18 -6.329,27.25 -6.192,41.4 4.551,-5.64 9.356,-11 14.512,-15.88 10.019,-9.38 20.859,-17.91 32.129,-25.76 2.597,-1.82 5.254,-3.61 7.949,-5.38 11.289,-8.17 23.398,-15.09 36.426,-20.4 2.187,-0.92 4.433,-1.62 6.718,-2.27 2.833,-1.03 5.665,-1.94 8.555,-2.74 3.184,-0.88 6.582,-1.64 10.078,-2.18 6.563,-1.97 13.653,-4.33 20.274,-3.05 8.008,1.51 12.929,7.74 16.054,15.45 5.118,7.7 7.266,16.98 7.891,26.19 1.094,16.82 -1.445,33.71 -8.789,48.99 -7.949,16.47 -20.293,30.51 -31.055,45.22 -7.617,10.41 -15.351,20.85 -24.238,30.17 1.445,0.41 3.066,0.47 4.004,0.24 11.113,-2.5 20.234,-8.43 29.297,-14.59 -19.746,30.7 -49.981,52.53 -78.399,75.22 -2.441,1.94 -0.996,4.87 2.11,4.46 8.711,-1.15 16.426,-3.68 23.867,-6.97 -17.637,24.55 -35.703,48.51 -55.762,71.35 -24.433,27.84 -50.215,54.89 -76.191,81.31 -25.332,25.8 -52.813,52.04 -83.047,72.07 -15.039,9.92 -29.922,20.12 -45.195,29.74 -8.477,5.32 -17.715,9.59 -26.543,14.49 -5.391,3.91 -10.782,7.86 -16.094,11.91 l 1.641,-0.13 c 13.593,-9.83 30.351,-15.13 44.882,-23.58 15.782,-9.16 31.094,-19.04 46.582,-28.78 30.43,-19.19 57.871,-44.3 84.102,-68.76 27.324,-25.49 53.613,-52.42 78.945,-79.86 10.039,-10.89 20.078,-22.19 29.629,-33.9 3.594,-6.33 7.129,-12.67 10.606,-19.06 4.453,-8.28 8.73,-16.71 13.066,-25.07 2.871,-5.53 7.793,-12.77 7.754,-19.27 -0.918,0.25 -1.738,0.62 -2.246,1.09 -6.875,6.06 -14.688,11.46 -23.242,14.81 31.191,-23.94 62.988,-48.27 81.875,-83.58 2.363,-4.5 -5.078,-5.25 -7.657,-3.89 -9.746,5.2 -18.496,12.7 -28.261,18.02 16.543,-19.81 39.023,-33.26 51.425,-56.29 7.051,-33.34 7.793,-68.47 2.637,-102.36 -1.68,5.62 -2.949,11.33 -4.023,17.09 -2.11,-6.31 -5.449,-12.02 -10.352,-16.22 -14.121,-12.03 -32.402,-3.07 -48.359,-1.02 -21.602,2.77 -43.164,16.6 -60.098,29.44 -13.105,9.94 -24.609,21.98 -34.863,34.9 2.461,-10.99 6.894,-21.66 8.515,-32.85 0.704,-4.93 -6.64,-4.59 -9.414,-3.36 -23.476,10.37 -37.05,30.99 -52.441,50.14 2.852,-9.25 6.543,-18.12 10.547,-27.06 1.582,-3.51 -3.613,-3.65 -5.586,-2.87 -59.16,23.58 -110.156,65.75 -144.375,119.43 -14.395,22.58 -26.445,47.41 -36.66,72.62"
         style="fill:#040606;fill-opacity:1;fill-rule:nonzero;stroke:none"
         id="path34" />
      <path
         d="m 1007.66,2037.6 c -11.801,9.18 -21.351,20.91 -27.367,35.66 -4.18,10.23 -7.051,21.59 -8.594,33.48 l -0.078,0.09 c -4.199,6.93 -6.055,14.54 -8.848,22.08 -3.554,9.62 -11.718,14.04 -19.57,19.01 -1.894,0.55 -3.711,1.31 -5.371,2.46 l -1.055,0.91 -1.777,0.09 c -2.832,0.26 -7.715,4.45 -2.949,5.92 3.711,1.15 7.324,1.54 11.035,1.67 19.004,0.64 35.957,37.4 49.473,48.01 28.981,22.7 62.501,35.27 98.101,22.43 30.3,-10.97 55.49,-30.21 76.41,-54.46 15.61,-18.08 28.42,-38.09 39.92,-58.86 1.45,-2.22 2.91,-4.45 4.34,-6.69 1.68,-2.28 3.22,-4.67 4.47,-7.15 6.9,-11.18 15.12,-23.04 19.51,-35.42 0.74,-2.07 -2.42,-1.75 -3.67,-0.76 l -0.25,0.31 -0.08,0.08 -0.08,0.13 -0.98,1.17 -0.56,0.3 c -0.92,1.19 -1.84,2.45 -2.74,3.68 -2.4,2.96 -4.72,5.98 -7.09,9 -1.5,-11.54 -8.53,-21.98 -15.91,-30.92 -15.38,-18.61 -36.37,-26.83 -58.77,-30.25 -14.87,-4.69 -31.47,-7.39 -48.48,-7.69 8.16,-4.54 15.98,-9.72 23.36,-15.51 l 0.19,-0.16 c -3.94,1.52 -7.83,2.87 -11.34,4.15 -4.5,1.62 -9.01,3.22 -13.54,4.84 -5.94,2.49 -11.87,4.93 -17.83,7.28 -8.5,3.35 -17.05,5.88 -25.72,8.02 -30.39,10.2 -61.898,16.51 -93.851,14.33 -1.778,0.02 -3.614,0.06 -5.449,0.06 18.027,3.06 36.621,4 55.14,2.71"
         style="fill:#040606;fill-opacity:1;fill-rule:nonzero;stroke:none"
         id="path36" />
      <g
         id="g38">
        <g
           id="g40"
           clip-path="url(#clipPath44)">
          <path
             d="m 1076.04,2021.86 c 7.09,-0.61 14.04,-0.84 20.64,-0.78 31.46,0.22 84.88,13.89 96.78,47.29 10.35,29.01 -9.5,59.83 -27.62,80.96 -16.5,19.23 -34.88,36.67 -56.48,50.07 -44.15,27.42 -97.82,21.24 -115.786,-31.79 -10.703,-31.72 -12.539,-69.23 0.801,-100.49 14.175,-33.26 52.445,-33.22 81.665,-45.26"
             style="fill:url(#linearGradient52);fill-opacity:1;fill-rule:nonzero;stroke:none"
             id="path54" />
        </g>
      </g>
      <path
         d="m 1148.71,2146.69 c 24.12,-52.2 15.94,-106.65 -18.3,-121.65 -34.24,-15 -81.52,15.13 -105.66,67.31 -24.12,52.14 -15.92,106.55 18.32,121.59 34.25,15.02 81.54,-15.12 105.64,-67.25"
         style="fill:#040606;fill-opacity:1;fill-rule:nonzero;stroke:none"
         id="path56" />
      <path
         d="m 1112.23,2173.18 c 9.7,-21.04 5.8,-43.26 -8.75,-49.59 -14.57,-6.39 -34.16,5.49 -43.95,26.5 -9.73,21.02 -5.78,43.23 8.77,49.61 14.55,6.41 34.2,-5.5 43.93,-26.52"
         style="fill:#ffffff;fill-opacity:1;fill-rule:nonzero;stroke:none"
         id="path58" />
      <path
         d="m 1044.65,2270.25 c 13.63,0.08 27.09,-4.11 40.25,-7.21 2.76,-0.64 5.1,1.33 2.91,3.86 -14.8,17.16 -35.51,40.26 -60,40 -15.58,-0.22 -27.36,-11.51 -32.537,-25.48 -1.562,-4.23 -2.578,-10.94 -1.445,-15.86 3.32,-14.21 40.372,4.67 50.822,4.69"
         style="fill:#040606;fill-opacity:1;fill-rule:nonzero;stroke:none"
         id="path60" />
      <path
         d="m 1368.14,1886.12 c 0,0 -125.48,0.49 -222.46,-84.83 0,0 90.78,69.09 222.46,84.83"
         style="fill:#040606;fill-opacity:1;fill-rule:nonzero;stroke:none"
         id="path62" />
      <path
         d="m 1372.79,1896.99 c 0,0 -124.82,30.58 -239.86,-27.37 0,0 105.35,44.01 239.86,27.37"
         style="fill:#040606;fill-opacity:1;fill-rule:nonzero;stroke:none"
         id="path64" />
      <path
         d="m 1373.95,1875.83 c 0,0 -89.36,-42.59 -136.06,-143.02 0,0 46.52,85.54 136.06,143.02"
         style="fill:#040606;fill-opacity:1;fill-rule:nonzero;stroke:none"
         id="path66" />
      <path
         d="m 1467.87,1963.44 c 0,0 67.31,84.25 171.92,86.98 0,0 -91.29,-10.39 -171.92,-86.98"
         style="fill:#040606;fill-opacity:1;fill-rule:nonzero;stroke:none"
         id="path68" />
      <path
         d="m 1458.65,1968.25 c 0,0 48.54,105.73 146.12,140.45 0,0 -83.81,-38.39 -146.12,-140.45"
         style="fill:#040606;fill-opacity:1;fill-rule:nonzero;stroke:none"
         id="path70" />
      <path
         d="m 1471.05,1952.04 c 0,0 74.28,28.76 161.08,-13.17 0,0 -77.58,31.18 -161.08,13.17"
         style="fill:#040606;fill-opacity:1;fill-rule:nonzero;stroke:none"
         id="path72" />
      <path
         d="m 1393.63,2048.18 c 20.49,10.54 48.36,25.19 71.74,17.2 4.49,-1.55 8.09,-3.97 10.98,-7.01 23.2,-34.18 2.65,-89.63 -29.67,-127.8 -37.64,-17.77 -96.15,-18.63 -128.95,6.14 -48.06,36.34 51,98.61 75.9,111.47"
         style="fill:#040606;fill-opacity:1;fill-rule:nonzero;stroke:none"
         id="path74" />
    </g>
  </g>
</svg>
